<svg width="32" height="32" xmlns="http://www.w3.org/2000/svg">

 <g>
  <title>Layer 1</title>
  <path fill="#cecece" id="svg_1" d="m16,2.125l-0.90625,2.0625l-3.25,7.28125l-7.9375,0.84375l-2.25,0.25l1.6875,1.5l5.90625,5.34375l-1.65625,7.8125l-0.46875,2.1875l1.96875,-1.125l6.90625,-4l6.90625,4l1.96875,1.125l-0.46875,-2.1875l-1.65625,-7.8125l5.90625,-5.34375l1.6875,-1.5l-2.25,-0.25l-7.9375,-0.84375l-3.25,-7.28125l-0.90625,-2.0625zm0,4.90625l2.5625,5.78125l0.25,0.53125l0.5625,0.0625l6.28125,0.65625l-4.6875,4.21875l-0.4375,0.40625l0.125,0.5625l1.3125,6.15625l-5.46875,-3.125l-0.5,-0.3125l-0.5,0.3125l-5.46875,3.125l1.3125,-6.15625l0.125,-0.5625l-0.4375,-0.40625l-4.6875,-4.21875l6.28125,-0.65625l0.5625,-0.0625l0.25,-0.53125l2.5625,-5.78125z"/>
 </g>
</svg>