<svg width="32" height="32" xmlns="http://www.w3.org/2000/svg">

 <g>
  <title>Layer 1</title>
  <path fill="#f7900a" id="svg_1" d="m16,2.375l-0.90625,2.03125l-3.25,7.3125l-7.9375,0.8125l-2.25,0.25l1.6875,1.5l5.90625,5.34375l-1.65625,7.8125l-0.46875,2.1875l0.03125,0l1.9375,-1.125l6.90625,-3.96875l6.90625,3.96875l1.96875,1.125l-0.46875,-2.1875l-1.65625,-7.8125l5.90625,-5.34375l1.6875,-1.5l-2.25,-0.25l-7.9375,-0.8125l-3.25,-7.3125l-0.90625,-2.03125zm0,4.90625l2.5625,5.78125l0.25,0.5l0.5625,0.0625l6.3125,0.65625l-4.71875,4.25l-0.4375,0.375l0.125,0.5625l1.3125,6.1875l-5.46875,-3.15625l-0.5,-0.28125l0,-14.9375z"/>
 </g>
</svg>